<svg xmlns="http://www.w3.org/2000/svg" width="205" height="40" viewBox="0 0 205 40" fill="none">
  <path d="M56.1619 10.2049H60.9607L67.8802 30.1256H63.9183L62.3557 25.2709H54.46L53.1208 30.1256H49.2427L56.1619 10.2049ZM55.1575 22.5646H61.6024L58.4218 12.6601H57.8917L55.1575 22.5646ZM70.7739 9.87012H74.1221V30.1256H70.7739V9.87012ZM85.4589 30.1256C84.8452 30.2371 83.7014 30.3209 82.6964 30.3209C80.1302 30.3209 78.6789 29.0374 78.6789 26.3591V17.8216H76.7539V15.2269H78.6789V11.9906H82.027V15.2269H85.4589V17.8216H82.027V25.7174C82.027 27.1681 82.4458 27.6424 83.8964 27.6424H85.4589V30.1256ZM101.126 23.1226H90.7477C90.8871 26.6381 92.5333 27.8936 94.8208 27.8936C97.1645 27.8936 97.9458 27.1681 98.2245 25.7452H101.155C100.82 28.5911 98.5039 30.4604 94.7652 30.4604C90.3852 30.4604 87.3714 27.5866 87.3714 22.6762C87.3714 17.7659 90.4408 14.8921 94.5702 14.8921C99.2014 14.8921 101.405 17.8774 101.126 23.1226ZM94.6539 17.2079C92.6171 17.2079 91.222 18.2401 90.8589 21.0022H98.0577C98.0014 18.3796 96.7183 17.2079 94.6539 17.2079ZM104.643 15.2269H107.796L107.908 19.1609H108.047C108.717 16.4266 110.223 15.0316 112.232 15.0316C112.539 15.0316 112.874 15.0596 113.181 15.1711V18.3239H111.423C109.247 18.3239 107.991 19.4956 107.991 22.6762V30.1256H104.643V15.2269ZM114.918 22.6762C114.918 17.7101 118.182 14.8921 122.395 14.8921C126.58 14.8921 129.872 17.7101 129.872 22.6762C129.872 27.6424 126.58 30.4604 122.395 30.4604C118.182 30.4604 114.918 27.6424 114.918 22.6762ZM118.433 22.6762C118.433 26.3869 119.856 27.8099 122.395 27.8099C124.906 27.8099 126.356 26.4706 126.356 22.6762C126.356 18.9656 124.906 17.5426 122.395 17.5426C119.856 17.5426 118.433 18.9656 118.433 22.6762ZM133.584 10.2049H137.155V27.1681H147.031V30.1256H133.584V10.2049ZM162.438 30.1256H159.314C159.09 29.3722 158.923 28.2284 158.923 27.0007H158.7C158.086 29.0096 156.496 30.4604 153.985 30.4604C151.669 30.4604 149.632 29.0096 149.632 26.4427C149.632 23.9876 151.585 22.0346 155.352 21.5602L158.7 21.1417V20.3606C158.7 18.3239 157.863 17.4311 155.686 17.4311C153.734 17.4311 152.98 18.1006 152.869 19.4956H149.911C150.023 16.3429 152.45 14.8921 155.993 14.8921C160.43 14.8921 161.992 16.8731 161.992 20.4721V25.9684C161.992 27.8099 162.16 29.1211 162.438 30.1256ZM152.925 25.9964C152.925 27.4192 153.734 28.0609 155.24 28.0609C157.193 28.0609 158.756 26.9449 158.756 24.1271V23.0111L155.798 23.3179C153.734 23.5691 152.925 24.4619 152.925 25.9964ZM166.438 9.87012H169.786L169.758 19.0214H170.009C170.846 16.4266 172.771 14.8921 175.086 14.8921C178.211 14.8921 181.169 17.5426 181.169 22.6762C181.169 27.8099 178.1 30.4604 175.115 30.4604C172.826 30.4604 170.846 29.2049 169.953 26.6659H169.73L169.59 30.1256H166.438V9.87012ZM173.691 27.8099C176.258 27.8099 177.653 26.3591 177.653 22.6762C177.653 18.9934 176.258 17.5706 173.691 17.5706C171.599 17.5706 169.73 19.0771 169.73 22.6204V22.7321C169.73 26.3032 171.404 27.8099 173.691 27.8099ZM183.325 25.9964H186.199C186.338 27.3634 187.175 28.0051 189.658 28.0051C191.863 28.0051 192.588 27.3634 192.588 26.1637C192.588 25.0477 191.695 24.5734 189.101 23.9596C185.892 23.2064 183.911 22.0624 183.911 19.2446C183.911 16.7614 186.031 14.8921 189.547 14.8921C193.425 14.8921 195.295 16.7056 195.295 19.2166H192.393C192.337 17.9611 191.556 17.3474 189.575 17.3474C187.817 17.3474 187.092 17.9054 187.092 19.0492C187.092 20.2769 187.901 20.6674 190.3 21.2254C193.76 22.0346 195.796 23.1506 195.796 25.9406C195.796 28.6469 193.453 30.4604 189.715 30.4604C185.39 30.4604 183.353 28.7026 183.325 25.9964Z" fill="#151418"/>
  <mask id="mask0_1_1368" style="mask-type:luminance" maskUnits="userSpaceOnUse" x="7" y="7" width="36" height="25">
    <path d="M42.2439 7.68506H7.75684V31.3151H42.2439V7.68506Z" fill="white"/>
  </mask>
  <g mask="url(#mask0_1_1368)">
    <path d="M27.4083 26.1021C27.7399 26.4236 27.7409 26.9508 27.4094 27.2734L23.862 30.7291C23.5315 31.0516 22.8771 31.3152 22.4081 31.3152H17.8405C17.3716 31.3152 17.2628 31.0557 17.5996 30.7394L24.3896 24.3458C24.7265 24.0284 25.2733 24.0326 25.6048 24.3541L27.4083 26.1032V26.1021Z" fill="#F1C01B"/>
    <path d="M31.5153 13.6671C31.8468 13.9885 31.8468 14.5147 31.5153 14.8362L24.2553 21.8769C23.9238 22.1984 23.3812 22.7246 23.0497 23.0461L18.8169 27.1521C18.4854 27.4735 17.9429 27.9997 17.6114 28.3212L15.1278 30.7298C14.7963 31.0513 14.2537 31.0513 13.9222 30.7298L9.19053 26.1411C8.85907 25.8196 8.32184 25.2986 7.9967 24.9833C7.67163 24.668 7.67802 24.147 8.00947 23.8255L10.4931 21.4169C10.8246 21.0954 11.3672 20.5693 11.6987 20.2478L15.9315 16.1418C16.263 15.8203 16.8055 15.2942 17.137 14.9727L17.2788 14.8352C17.6103 14.5137 18.1529 13.9875 18.4844 13.666L23.216 9.07734C23.5475 8.75584 24.0848 8.23483 24.4098 7.91953C24.735 7.6043 25.2658 7.6043 25.5909 7.91953C25.916 8.23483 26.4533 8.75584 26.7847 9.07734L31.5164 13.666L31.5153 13.6671Z" fill="#8B5CF6"/>
    <path d="M41.994 23.8267C42.3255 24.1482 42.3309 24.6692 42.0068 24.9844C41.6828 25.2997 41.1445 25.8207 40.813 26.1422L36.0813 30.7309C35.7498 31.0524 35.2073 31.0524 34.8758 30.7309L30.5992 26.5836C30.2678 26.2621 29.7252 25.736 29.3937 25.4145L26.9527 23.0473C26.6212 22.7258 26.6212 22.1996 26.9527 21.8781L31.6844 17.2894C32.0159 16.9679 32.5531 16.4469 32.8782 16.1316C33.2033 15.8163 33.7406 15.8225 34.0721 16.144L41.9951 23.8277L41.994 23.8267Z" fill="#2AD68E"/>
  </g>
</svg>