<svg xmlns="http://www.w3.org/2000/svg" width="90" height="64" viewBox="0 0 90 64" fill="none">
  <mask id="mask0_1_1589" style="mask-type:luminance" maskUnits="userSpaceOnUse" x="18" y="13" width="54" height="39">
    <path d="M72 13.5H18V51.3H72V13.5Z" fill="white"/>
  </mask>
  <g mask="url(#mask0_1_1589)">
    <path d="M48.7667 42.9608C49.2858 43.4751 49.2874 44.3185 48.7684 44.8344L43.2138 50.3624C42.6964 50.8783 41.6716 51.3 40.9373 51.3H33.7854C33.0511 51.3 32.8808 50.885 33.4082 50.379L44.04 40.1513C44.5674 39.6437 45.4236 39.6503 45.9427 40.1646L48.7667 42.9625V42.9608Z" fill="white"/>
    <path d="M55.2012 23.0694C55.7203 23.5837 55.7203 24.4254 55.2012 24.9397L43.8334 36.2025C43.3144 36.7167 42.4648 37.5584 41.9457 38.0727L35.318 44.6409C34.7989 45.1551 33.9494 45.9968 33.4303 46.5111L29.5415 50.364C29.0224 50.8783 28.1729 50.8783 27.6538 50.364L20.2449 43.0236C19.7259 42.5093 18.8847 41.6759 18.3756 41.1716C17.8666 40.6672 17.8766 39.8338 18.3956 39.3195L22.2845 35.4666C22.8036 34.9523 23.6531 34.1106 24.1722 33.5964L30.7999 27.0282C31.319 26.5139 32.1685 25.6722 32.6876 25.158L32.9096 24.938C33.4287 24.4237 34.2782 23.5821 34.7973 23.0678L42.2061 15.7274C42.7252 15.2131 43.5664 14.3797 44.0754 13.8753C44.5845 13.371 45.4157 13.371 45.9247 13.8753C46.4338 14.3797 47.275 15.2131 47.794 15.7274L55.2029 23.0678L55.2012 23.0694Z" fill="white"/>
    <path d="M71.6051 39.3216C72.1242 39.8359 72.1326 40.6693 71.6252 41.1736C71.1178 41.678 70.2749 42.5114 69.7558 43.0257L62.347 50.366C61.8279 50.8804 60.9784 50.8804 60.4593 50.366L53.7631 43.7317C53.2441 43.2174 52.3945 42.3757 51.8755 41.8614L48.0534 38.0748C47.5343 37.5605 47.5343 36.7188 48.0534 36.2045L55.4622 28.864C55.9813 28.3498 56.8225 27.5163 57.3315 27.012C57.8406 26.5076 58.6818 26.5176 59.2009 27.0318L71.6068 39.3231L71.6051 39.3216Z" fill="white"/>
  </g>
</svg>