<svg xmlns="http://www.w3.org/2000/svg" width="135" height="40" viewBox="0 0 135 40" fill="none">
  <g clip-path="url(#clip0_1_1489)">
    <path d="M129.998 0H5.00298C2.23991 0 0 2.23991 0 5.00298V34.997C0 37.7601 2.23991 40 5.00298 40H129.998C132.761 40 135.001 37.7601 135.001 34.997V5.00298C135.001 2.23991 132.761 0 129.998 0Z" fill="#222230"/>
    <path d="M130.006 0.843108C131.119 0.84521 132.186 1.28836 132.973 2.07549C133.76 2.86262 134.204 3.92958 134.206 5.04275V35.0447C134.204 36.1579 133.76 37.2249 132.973 38.012C132.186 38.7991 131.119 39.2423 130.006 39.2444H5.00299C3.88982 39.2423 2.82286 38.7991 2.03573 38.012C1.2486 37.2249 0.805451 36.1579 0.803348 35.0447V5.00299C0.805451 3.88982 1.2486 2.82283 2.03573 2.0357C2.82286 1.24857 3.88982 0.805451 5.00299 0.803348H130.006M130.006 0.00796163H5.00299C3.67741 0.0121565 2.40732 0.540594 1.46999 1.47793C0.532656 2.41526 0.00419491 3.68534 0 5.01093V35.0447C0.0062892 36.3689 0.535673 37.637 1.47278 38.5726C2.40989 39.5082 3.67878 40.0356 5.00299 40.0398H130.006C131.33 40.0356 132.599 39.5082 133.536 38.5726C134.473 37.637 135.003 36.3689 135.009 35.0447V5.00299C135.005 3.67741 134.476 2.4073 133.539 1.46997C132.602 0.532632 131.332 0.00419491 130.006 0V0.00796163Z" fill="#A6A6A6"/>
    <path d="M47.4216 10.2447C47.4399 10.612 47.383 10.9793 47.2544 11.3239C47.1259 11.6686 46.9284 11.9833 46.674 12.249C46.3894 12.5427 46.046 12.7731 45.6664 12.9252C45.2868 13.0773 44.8794 13.1478 44.4707 13.1319C43.6396 13.1319 42.8425 12.8017 42.2548 12.214C41.6671 11.6263 41.3369 10.8292 41.3369 9.99808C41.3369 9.16694 41.6671 8.36983 42.2548 7.78213C42.8425 7.19442 43.6396 6.86426 44.4707 6.86426C44.8947 6.86417 45.3143 6.95079 45.7036 7.11879C46.0651 7.26372 46.3869 7.49276 46.6422 7.78691L46.1172 8.3198C45.9161 8.08212 45.663 7.89393 45.3775 7.7698C45.092 7.64566 44.7817 7.58891 44.4707 7.60396C44.0838 7.61174 43.7045 7.71352 43.3657 7.90053C43.0269 8.08755 42.7386 8.35417 42.5258 8.67742C42.3129 9.00067 42.1819 9.37084 42.144 9.75601C42.1061 10.1412 42.1625 10.5298 42.3083 10.8883C42.454 11.2468 42.6848 11.5645 42.9807 11.814C43.2766 12.0635 43.6287 12.2372 44.0068 12.3202C44.3848 12.4033 44.7773 12.3931 45.1505 12.2906C45.5237 12.1882 45.8664 11.9964 46.149 11.732C46.4556 11.399 46.6333 10.9675 46.6501 10.5151H44.5026V9.79128H47.4137C47.4274 9.942 47.4301 10.0935 47.4216 10.2447Z" fill="white" stroke="white" stroke-width="0.159077" stroke-miterlimit="10"/>
    <path d="M52.0364 7.73918H49.2764V9.64014H51.7421V10.3878H49.2764V12.2888H52.0125V13.0285H48.5049V7.02332H52.0125L52.0364 7.73918Z" fill="white" stroke="white" stroke-width="0.159077" stroke-miterlimit="10"/>
    <path d="M55.2806 13.0041H54.4852V7.73863H52.8149V6.9989H56.935V7.73863H55.2568L55.2806 13.0041Z" fill="white" stroke="white" stroke-width="0.159077" stroke-miterlimit="10"/>
    <path d="M59.9414 13.004V6.99878H60.7368V13.004H59.9414Z" fill="white" stroke="white" stroke-width="0.159077" stroke-miterlimit="10"/>
    <path d="M64.1334 13.0041H63.338V7.73863H61.6836V6.9989H65.8117V7.73863H64.1334V13.0041Z" fill="white" stroke="white" stroke-width="0.159077" stroke-miterlimit="10"/>
    <path d="M73.6126 12.2251C73.0283 12.8065 72.2376 13.1328 71.4134 13.1328C70.5891 13.1328 69.7984 12.8065 69.2141 12.2251C68.6464 11.6241 68.3301 10.8287 68.3301 10.002C68.3301 9.17525 68.6464 8.37983 69.2141 7.77887C69.4954 7.48087 69.8362 7.24542 70.2144 7.08783C70.5926 6.93024 70.9998 6.85403 71.4094 6.86418C71.8199 6.85635 72.2275 6.93357 72.6067 7.09099C72.9859 7.24841 73.3284 7.48262 73.6126 7.77887C74.1804 8.37983 74.4967 9.17525 74.4967 10.002C74.4967 10.8287 74.1804 11.6241 73.6126 12.2251ZM69.7868 11.724C70.0003 11.9378 70.2538 12.1074 70.533 12.2231C70.8121 12.3388 71.1112 12.3984 71.4134 12.3984C71.7155 12.3984 72.0147 12.3388 72.2938 12.2231C72.5729 12.1074 72.8264 11.9378 73.0399 11.724C73.4698 11.2535 73.7081 10.6393 73.7081 10.002C73.7081 9.36471 73.4698 8.75047 73.0399 8.27996C72.8264 8.06616 72.5729 7.89656 72.2938 7.78083C72.0147 7.66511 71.7155 7.60553 71.4134 7.60553C71.1112 7.60553 70.8121 7.66511 70.533 7.78083C70.2538 7.89656 70.0003 8.06616 69.7868 8.27996C69.357 8.75047 69.1187 9.36471 69.1187 10.002C69.1187 10.6393 69.357 11.2535 69.7868 11.724Z" fill="white" stroke="white" stroke-width="0.159077" stroke-miterlimit="10"/>
    <path d="M75.5771 13.0041V6.9989H76.5157L79.4348 11.6678V10.5145V6.9989H80.2302V13.0041H79.4348L76.3169 8.1045V9.26576V13.0041H75.5771Z" fill="white" stroke="white" stroke-width="0.159077" stroke-miterlimit="10"/>
    <path d="M68.1429 21.7537C67.302 21.7568 66.4808 22.0091 65.7832 22.4786C65.0855 22.9481 64.5425 23.6137 64.2229 24.3916C63.9033 25.1694 63.8212 26.0245 63.9872 26.8489C64.1532 27.6733 64.5598 28.43 65.1555 29.0235C65.7512 29.6171 66.5095 30.0208 67.3345 30.1837C68.1595 30.3466 69.0143 30.2614 69.7909 29.9389C70.5676 29.6163 71.2312 29.0709 71.6981 28.3715C72.165 27.672 72.4142 26.85 72.4142 26.009C72.4228 25.4465 72.3181 24.8879 72.1063 24.3667C71.8945 23.8455 71.58 23.3722 71.1814 22.9751C70.7828 22.578 70.3084 22.2652 69.7864 22.0554C69.2644 21.8455 68.7054 21.743 68.1429 21.7537ZM68.1429 28.5861C67.6247 28.626 67.1065 28.5089 66.6559 28.2499C66.2052 27.9908 65.8432 27.602 65.6169 27.1341C65.3906 26.6662 65.3107 26.1409 65.3874 25.6268C65.4642 25.1128 65.6942 24.6338 66.0473 24.2524C66.4004 23.8711 66.8603 23.605 67.367 23.4889C67.8736 23.3729 68.4035 23.4123 68.8874 23.602C69.3713 23.7916 69.7868 24.1228 70.0797 24.5522C70.3725 24.9816 70.5292 25.4893 70.5291 26.009C70.544 26.3355 70.4939 26.6616 70.3816 26.9685C70.2694 27.2755 70.0972 27.557 69.8752 27.7968C69.6532 28.0366 69.3857 28.2298 69.0883 28.3653C68.7909 28.5008 68.4696 28.5759 68.1429 28.5861ZM58.821 21.7537C57.9801 21.7568 57.1589 22.0091 56.4612 22.4786C55.7635 22.9481 55.2206 23.6137 54.901 24.3916C54.5813 25.1694 54.4993 26.0245 54.6653 26.8489C54.8313 27.6733 55.2378 28.43 55.8336 29.0235C56.4293 29.6171 57.1876 30.0208 58.0126 30.1837C58.8376 30.3466 59.6924 30.2614 60.469 29.9389C61.2456 29.6163 61.9093 29.0709 62.3762 28.3715C62.843 27.672 63.0922 26.85 63.0922 26.009C63.1009 25.4465 62.9962 24.8879 62.7844 24.3667C62.5726 23.8455 62.2581 23.3722 61.8595 22.9751C61.4609 22.578 60.9865 22.2652 60.4644 22.0554C59.9424 21.8455 59.3835 21.743 58.821 21.7537ZM58.821 28.5861C58.3028 28.626 57.7845 28.5089 57.3339 28.2499C56.8833 27.9908 56.5212 27.602 56.295 27.1341C56.0687 26.6662 55.9887 26.1409 56.0655 25.6268C56.1423 25.1128 56.3722 24.6338 56.7254 24.2524C57.0785 23.8711 57.5384 23.605 58.045 23.4889C58.5517 23.3729 59.0815 23.4123 59.5654 23.602C60.0494 23.7916 60.4649 24.1228 60.7577 24.5522C61.0506 24.9816 61.2072 25.4893 61.2072 26.009C61.2221 26.3355 61.172 26.6616 61.0597 26.9685C60.9474 27.2755 60.7753 27.557 60.5533 27.7968C60.3312 28.0366 60.0638 28.2298 59.7664 28.3653C59.469 28.5008 59.1476 28.5759 58.821 28.5861ZM47.7413 23.0581V24.8637H52.0602C51.9986 25.7117 51.6508 26.5138 51.0739 27.1385C50.6408 27.5782 50.1207 27.9227 49.5468 28.1501C48.973 28.3774 48.358 28.4826 47.7413 28.4588C46.4671 28.4588 45.2452 27.9527 44.3442 27.0517C43.4433 26.1507 42.9371 24.9288 42.9371 23.6547C42.9371 22.3805 43.4433 21.1586 44.3442 20.2576C45.2452 19.3567 46.4671 18.8505 47.7413 18.8505C48.9529 18.8353 50.1218 19.2983 50.9944 20.1391L52.267 18.8664C51.6711 18.2779 50.9641 17.8138 50.1871 17.5011C49.4101 17.1884 48.5787 17.0333 47.7413 17.045C46.8545 17.0142 45.9706 17.1623 45.1423 17.4804C44.314 17.7985 43.5582 18.2801 42.92 18.8966C42.2818 19.513 41.7743 20.2516 41.4276 21.0684C41.081 21.8852 40.9023 22.7634 40.9023 23.6507C40.9023 24.538 41.081 25.4162 41.4276 26.233C41.7743 27.0497 42.2818 27.7884 42.92 28.4048C43.5582 29.0212 44.314 29.5029 45.1423 29.821C45.9706 30.1391 46.8545 30.2872 47.7413 30.2564C48.5956 30.2911 49.4476 30.1446 50.2414 29.8265C51.0351 29.5085 51.7525 29.0261 52.3465 28.4111C52.9705 27.682 53.4259 26.8242 53.6803 25.899C53.9346 24.9737 53.9816 24.0037 53.818 23.0581H47.7413ZM93.0783 24.458C92.8192 23.6896 92.3314 23.0188 91.6803 22.5354C91.0292 22.0521 90.2459 21.7793 89.4354 21.7537C88.8886 21.7573 88.3482 21.8716 87.8467 22.0898C87.3453 22.308 86.8932 22.6254 86.5179 23.0231C86.1425 23.4208 85.8516 23.8904 85.6627 24.4036C85.4738 24.9167 85.3908 25.4629 85.4187 26.009C85.4069 26.568 85.5079 27.1236 85.7156 27.6427C85.9234 28.1618 86.2337 28.6337 86.6279 29.0302C87.0222 29.4266 87.4923 29.7396 88.0102 29.9502C88.5281 30.1609 89.0832 30.2651 89.6422 30.2564C90.3436 30.2614 91.0351 30.0917 91.6544 29.7626C92.2738 29.4335 92.8014 28.9553 93.1897 28.3713L91.7341 27.4089C91.5205 27.7724 91.2144 28.0729 90.847 28.2797C90.4795 28.4864 90.0638 28.5922 89.6422 28.5861C89.2095 28.6011 88.7822 28.4865 88.4151 28.2569C88.048 28.0273 87.758 27.6932 87.5822 27.2975L93.2692 24.9114L93.0783 24.458ZM87.272 25.8818C87.2516 25.5718 87.2933 25.2608 87.3948 24.9672C87.4963 24.6736 87.6555 24.4032 87.863 24.172C88.0705 23.9408 88.3221 23.7534 88.6031 23.6208C88.884 23.4883 89.1887 23.4132 89.4991 23.4001C89.8235 23.375 90.1481 23.4471 90.4314 23.6072C90.7147 23.7673 90.9439 24.0081 91.0899 24.2989L87.272 25.8818ZM82.6508 30.0019H84.5199V17.4984H82.6508V30.0019ZM79.5885 22.7002H79.5011C79.2163 22.3938 78.87 22.1511 78.4848 21.9879C78.0996 21.8248 77.6842 21.745 77.266 21.7537C76.1703 21.8011 75.1352 22.2697 74.3767 23.0618C73.6181 23.8539 73.1946 24.9083 73.1946 26.005C73.1946 27.1018 73.6181 28.1562 74.3767 28.9482C75.1352 29.7403 76.1703 30.209 77.266 30.2564C77.6861 30.2678 78.1036 30.1876 78.4896 30.0214C78.8755 29.8552 79.2207 29.607 79.5011 29.2939H79.5647V29.9064C79.5647 31.4972 78.6977 32.4039 77.2978 32.4039C76.8304 32.389 76.3776 32.2371 75.9958 31.967C75.614 31.6969 75.32 31.3205 75.1503 30.8847L73.5595 31.5688C73.8657 32.3159 74.3882 32.9544 75.06 33.4023C75.7318 33.8502 76.5222 34.087 77.3296 34.0822C79.517 34.0822 81.3702 32.7857 81.3702 29.6439V22.0082H79.5965L79.5885 22.7002ZM77.449 28.5861C76.8005 28.5351 76.195 28.2414 75.7534 27.7638C75.3119 27.2861 75.0666 26.6595 75.0666 26.009C75.0666 25.3585 75.3119 24.7319 75.7534 24.2542C76.195 23.7766 76.8005 23.4829 77.449 23.4319C78.0721 23.5169 78.6434 23.8249 79.0569 24.2987C79.4705 24.7725 79.6984 25.3801 79.6984 26.009C79.6984 26.6379 79.4705 27.2455 79.0569 27.7193C78.6434 28.1931 78.0721 28.5011 77.449 28.5861ZM101.828 17.4984H97.3575V30.0019H99.2266V25.2295H101.828C102.353 25.2533 102.877 25.1704 103.369 24.9858C103.861 24.8013 104.311 24.5189 104.691 24.1558C105.071 23.7927 105.373 23.3563 105.58 22.873C105.786 22.3897 105.893 21.8696 105.893 21.3441C105.893 20.8185 105.786 20.2984 105.58 19.8151C105.373 19.3318 105.071 18.8955 104.691 18.5323C104.311 18.1692 103.861 17.8868 103.369 17.7023C102.877 17.5177 102.353 17.4348 101.828 17.4586V17.4984ZM101.875 23.5274H99.2266V19.2403H101.875C102.168 19.2224 102.461 19.2647 102.736 19.3643C103.012 19.464 103.264 19.619 103.478 19.8198C103.691 20.0206 103.861 20.2629 103.977 20.5319C104.094 20.8009 104.153 21.0908 104.153 21.3838C104.153 21.6769 104.094 21.9668 103.977 22.2358C103.861 22.5047 103.691 22.7471 103.478 22.9479C103.264 23.1487 103.012 23.3037 102.736 23.4033C102.461 23.503 102.168 23.5452 101.875 23.5274ZM113.408 21.7298C112.728 21.6897 112.05 21.8499 111.459 22.1906C110.868 22.5312 110.39 23.0374 110.084 23.6467L111.738 24.3387C111.901 24.0358 112.149 23.7872 112.451 23.6233C112.754 23.4594 113.097 23.3874 113.44 23.416C113.911 23.3692 114.382 23.51 114.749 23.8078C115.117 24.1056 115.353 24.5364 115.405 25.0068V25.1341C114.804 24.8165 114.135 24.65 113.456 24.6489C111.674 24.6489 109.853 25.6272 109.853 27.4646C109.871 27.8513 109.967 28.2306 110.134 28.5798C110.301 28.929 110.536 29.2412 110.826 29.4978C111.116 29.7544 111.455 29.9502 111.822 30.0737C112.189 30.1971 112.577 30.2457 112.963 30.2166C113.434 30.2441 113.904 30.1451 114.323 29.9297C114.743 29.7143 115.097 29.3904 115.349 28.9917H115.413V29.9541H117.21V25.1818C117.186 22.9706 115.532 21.7298 113.392 21.7298H113.408ZM113.186 28.5781C112.573 28.5781 111.722 28.2759 111.722 27.5202C111.722 26.5578 112.78 26.184 113.703 26.184C114.298 26.1669 114.886 26.3126 115.405 26.6056C115.335 27.1497 115.07 27.6499 114.659 28.0128C114.248 28.3758 113.718 28.5767 113.17 28.5781H113.186ZM123.764 22.0003L121.625 27.4248H121.561L119.342 22.0003H117.338L120.662 29.5803L118.769 33.7958H120.71L125.84 22.0003H123.764ZM106.942 30.0019H108.811V17.4984H106.942V30.0019Z" fill="white"/>
    <path d="M10.4352 7.54021C10.1101 7.93491 9.9454 8.43748 9.97386 8.94803V31.0677C9.9454 31.5783 10.1101 32.0809 10.4352 32.4756L10.5147 32.5471L22.8989 20.155V19.8607L10.5147 7.47656L10.4352 7.54021Z" fill="url(#paint0_linear_1_1489)"/>
    <path d="M27.0031 24.2825L22.875 20.1465V19.8522L27.011 15.7241L27.0985 15.7798L31.9901 18.5557C33.39 19.3511 33.39 20.6555 31.9901 21.443L27.0985 24.2268L27.0031 24.2825Z" fill="url(#paint1_linear_1_1489)"/>
    <path d="M27.1223 24.2273L22.8988 20.0038L10.4351 32.4675C10.721 32.7184 11.0854 32.8619 11.4656 32.8735C11.8458 32.8851 12.2182 32.7641 12.519 32.5311L27.1223 24.2273Z" fill="url(#paint2_linear_1_1489)"/>
    <path d="M27.1223 15.7808L12.519 7.47695C12.2182 7.244 11.8458 7.12294 11.4656 7.13455C11.0854 7.14616 10.721 7.28973 10.4351 7.5406L22.8988 20.0043L27.1223 15.7808Z" fill="url(#paint3_linear_1_1489)"/>
    <path opacity="0.2" d="M27.0026 24.1315L12.4867 32.3796C12.1971 32.5953 11.8456 32.7117 11.4845 32.7117C11.1235 32.7117 10.772 32.5953 10.4824 32.3796L10.4028 32.4512L10.4824 32.5228C10.771 32.7409 11.1228 32.8589 11.4845 32.8589C11.8463 32.8589 12.1981 32.7409 12.4867 32.5228L27.09 24.219L27.0026 24.1315Z" fill="#222230"/>
    <path opacity="0.12" d="M10.4352 32.3246C10.1101 31.9299 9.9454 31.4273 9.97386 30.9167V31.0679C9.9454 31.5784 10.1101 32.081 10.4352 32.4757L10.5147 32.4041L10.4352 32.3246Z" fill="#222230"/>
    <path opacity="0.12" d="M32.0153 21.3001L27.0044 24.1317L27.0919 24.2272L31.9835 21.4433C32.2714 21.3194 32.5207 21.1204 32.7054 20.8671C32.8901 20.6139 33.0034 20.3157 33.0334 20.0037C32.9753 20.2837 32.8531 20.5464 32.6765 20.7713C32.4998 20.9962 32.2735 21.1772 32.0153 21.3001Z" fill="#222230"/>
    <path opacity="0.25" d="M12.5208 7.62759L32.0157 18.7073C32.2806 18.8253 32.5139 19.0042 32.6963 19.2295C32.8788 19.4549 33.0054 19.7202 33.0657 20.0038C33.0362 19.6907 32.9232 19.3911 32.7386 19.1365C32.5539 18.8819 32.3043 18.6815 32.0157 18.5562L12.5208 7.47647C11.121 6.68108 9.97559 7.34126 9.97559 8.94794V9.0911C9.97559 7.49237 11.0971 6.83221 12.5208 7.62759Z" fill="white"/>
  </g>
  <defs>
    <linearGradient id="paint0_linear_1_1489" x1="21.8013" y1="8.70941" x2="5.01861" y2="25.4921" gradientUnits="userSpaceOnUse">
      <stop stop-color="#00A0FF"/>
      <stop offset="0.01" stop-color="#00A1FF"/>
      <stop offset="0.26" stop-color="#00BEFF"/>
      <stop offset="0.51" stop-color="#00D2FF"/>
      <stop offset="0.76" stop-color="#00DFFF"/>
      <stop offset="1" stop-color="#00E3FF"/>
    </linearGradient>
    <linearGradient id="paint1_linear_1_1489" x1="33.8354" y1="20.0033" x2="9.63978" y2="20.0033" gradientUnits="userSpaceOnUse">
      <stop stop-color="#FFE000"/>
      <stop offset="0.41" stop-color="#FFBD00"/>
      <stop offset="0.78" stop-color="#FFA500"/>
      <stop offset="1" stop-color="#FF9C00"/>
    </linearGradient>
    <linearGradient id="paint2_linear_1_1489" x1="24.8315" y1="22.2945" x2="2.06757" y2="45.0584" gradientUnits="userSpaceOnUse">
      <stop stop-color="#FF3A44"/>
      <stop offset="1" stop-color="#C31162"/>
    </linearGradient>
    <linearGradient id="paint3_linear_1_1489" x1="7.30124" y1="0.175292" x2="17.4583" y2="10.3403" gradientUnits="userSpaceOnUse">
      <stop stop-color="#32A071"/>
      <stop offset="0.07" stop-color="#2DA771"/>
      <stop offset="0.48" stop-color="#15CF74"/>
      <stop offset="0.8" stop-color="#06E775"/>
      <stop offset="1" stop-color="#00F076"/>
    </linearGradient>
    <clipPath id="clip0_1_1489">
      <rect width="135.001" height="40" fill="white"/>
    </clipPath>
  </defs>
</svg>