<svg xmlns="http://www.w3.org/2000/svg" width="120" height="40" viewBox="0 0 120 40" fill="none">
  <g clip-path="url(#clip0_1_1508)">
    <path d="M110.132 -0.000114141H9.53224C9.16554 -0.000114141 8.80324 -0.000114141 8.43751 0.00188586C8.13136 0.00388586 7.82765 0.00969586 7.51856 0.0145859C6.84707 0.0224877 6.17717 0.0815621 5.51466 0.191296C4.85308 0.303418 4.21223 0.514802 3.61378 0.818296C3.01606 1.12436 2.4699 1.52205 1.99513 1.99696C1.51786 2.47052 1.12002 3.0179 0.816909 3.61805C0.512959 4.21699 0.302199 4.85882 0.191909 5.52137C0.0805695 6.18307 0.020657 6.85241 0.0127086 7.52337C0.00342859 7.82997 0.00244859 8.13759 -0.00244141 8.44423V31.5585C0.00244859 31.869 0.00342859 32.1698 0.0127086 32.4804C0.0206594 33.1513 0.080572 33.8206 0.191909 34.4823C0.301895 35.1452 0.512667 35.7874 0.816909 36.3866C1.11988 36.9848 1.51778 37.53 1.99513 38.0009C2.4681 38.4779 3.01461 38.8759 3.61378 39.1796C4.21223 39.4839 4.85301 39.6965 5.51466 39.8104C6.17728 39.9192 6.84712 39.9783 7.51856 39.9872C7.82765 39.994 8.13136 39.9979 8.43751 39.9979C8.80323 39.9999 9.16556 39.9999 9.53224 39.9999H110.132C110.492 39.9999 110.857 39.9999 111.216 39.9979C111.521 39.9979 111.834 39.994 112.138 39.9872C112.808 39.9788 113.477 39.9197 114.138 39.8104C114.802 39.6957 115.445 39.4831 116.046 39.1796C116.645 38.8757 117.191 38.4777 117.664 38.0009C118.14 37.5281 118.538 36.9833 118.845 36.3866C119.147 35.787 119.356 35.1448 119.464 34.4823C119.576 33.8205 119.638 33.1514 119.65 32.4804C119.654 32.1698 119.654 31.869 119.654 31.5585C119.662 31.1952 119.662 30.8339 119.662 30.4647V9.53602C119.662 9.16981 119.662 8.80653 119.654 8.44423C119.654 8.13759 119.654 7.82997 119.65 7.52333C119.638 6.85231 119.576 6.18312 119.464 5.52133C119.356 4.85917 119.147 4.21739 118.845 3.61801C118.228 2.41508 117.249 1.43591 116.046 0.818206C115.445 0.515453 114.802 0.304126 114.138 0.191206C113.477 0.0809886 112.808 0.0218936 112.138 0.0144459C111.834 0.00956586 111.521 0.00370586 111.216 0.00175586C110.857 -0.000244141 110.492 -0.000114141 110.132 -0.000114141Z" fill="#A6A6A6"/>
    <path d="M8.44194 39.1246C8.13726 39.1246 7.83994 39.1207 7.53765 39.1139C6.91143 39.1058 6.28667 39.0513 5.66851 38.9508C5.0921 38.8516 4.53371 38.6669 4.01177 38.4029C3.49461 38.1412 3.02292 37.7979 2.61477 37.3863C2.20071 36.9796 1.85598 36.5079 1.59426 35.9898C1.32965 35.4684 1.14652 34.9095 1.05126 34.3326C0.948382 33.7127 0.892722 33.0859 0.884757 32.4576C0.878417 32.2467 0.870117 31.5445 0.870117 31.5445V8.44397C0.870117 8.44397 0.878957 7.75256 0.884807 7.54943C0.892433 6.92211 0.947769 6.29629 1.05034 5.67736C1.14578 5.09888 1.32904 4.53838 1.5938 4.01526C1.85456 3.49758 2.19737 3.02549 2.60894 2.61731C3.02004 2.20526 3.49324 1.86024 4.01128 1.59484C4.53202 1.33173 5.08935 1.14837 5.6646 1.0509C6.28479 0.94947 6.91172 0.89463 7.54011 0.886844L8.44243 0.874634H111.211L112.124 0.887334C112.747 0.894733 113.368 0.949084 113.982 1.04992C114.564 1.14861 115.127 1.33325 115.653 1.59777C116.691 2.13262 117.536 2.9788 118.068 4.0177C118.329 4.53721 118.509 5.09314 118.604 5.66662C118.707 6.29062 118.765 6.92137 118.777 7.55383C118.78 7.83703 118.78 8.14123 118.78 8.44397C118.788 8.81897 118.788 9.1759 118.788 9.53576V30.4644C118.788 30.8277 118.788 31.1822 118.78 31.5396C118.78 31.8648 118.78 32.1627 118.776 32.4693C118.765 33.0905 118.708 33.71 118.605 34.3228C118.512 34.9039 118.33 35.4671 118.065 35.9928C117.802 36.5052 117.459 36.9729 117.05 37.3785C116.641 37.7923 116.169 38.1376 115.65 38.401C115.125 38.667 114.563 38.8524 113.982 38.9508C113.364 39.0518 112.74 39.1063 112.113 39.1139C111.82 39.1207 111.514 39.1246 111.216 39.1246L110.132 39.1266L8.44194 39.1246Z" fill="#222230"/>
    <path d="M24.7661 20.3007C24.7768 19.466 24.9985 18.6477 25.4105 17.9217C25.8226 17.1957 26.4115 16.5858 27.1226 16.1486C26.6709 15.5035 26.0749 14.9725 25.3821 14.598C24.6893 14.2234 23.9187 14.0156 23.1315 13.991C21.4522 13.8147 19.8243 14.9958 18.9686 14.9958C18.0963 14.9958 16.7788 14.0085 15.3601 14.0376C14.4424 14.0673 13.548 14.3341 12.7642 14.8122C11.9803 15.2903 11.3336 15.9632 10.8871 16.7655C8.95314 20.1139 10.3957 25.035 12.2483 27.7416C13.1752 29.0669 14.2585 30.5474 15.676 30.4949C17.063 30.4374 17.5811 29.6104 19.2554 29.6104C20.9141 29.6104 21.4002 30.4949 22.8464 30.4615C24.3348 30.4374 25.2725 29.1303 26.1669 27.7924C26.8329 26.848 27.3453 25.8043 27.6853 24.6999C26.8206 24.3341 26.0827 23.722 25.5636 22.9397C25.0444 22.1574 24.7671 21.2396 24.7661 20.3007Z" fill="white"/>
    <path d="M22.0346 12.2108C22.8462 11.2366 23.246 9.98445 23.1492 8.72021C21.9093 8.85044 20.7641 9.44299 19.9416 10.3798C19.5394 10.8375 19.2314 11.3699 19.0352 11.9467C18.839 12.5235 18.7583 13.1333 18.7979 13.7412C19.418 13.7476 20.0315 13.6132 20.5922 13.3481C21.1528 13.083 21.646 12.6942 22.0346 12.2108Z" fill="white"/>
    <path d="M42.3037 27.1393H37.5703L36.4336 30.4958H34.4287L38.9121 18.0778H40.9951L45.4785 30.4958H43.4394L42.3037 27.1393ZM38.0605 25.5905H41.8125L39.9629 20.1432H39.9112L38.0605 25.5905Z" fill="white"/>
    <path d="M55.1617 25.9692C55.1617 28.7827 53.6558 30.5903 51.3833 30.5903C50.8077 30.6204 50.2352 30.4878 49.7314 30.2077C49.2276 29.9275 48.8129 29.5112 48.5347 29.0063H48.4917V33.4907H46.6333V21.4419H48.4322V22.9477H48.4663C48.7573 22.4453 49.179 22.0311 49.6867 21.7492C50.1943 21.4674 50.7688 21.3284 51.3492 21.3471C53.647 21.3471 55.1617 23.1635 55.1617 25.9692ZM53.2515 25.9692C53.2515 24.1362 52.3042 22.9311 50.8589 22.9311C49.439 22.9311 48.4839 24.1616 48.4839 25.9692C48.4839 27.7934 49.439 29.0151 50.8589 29.0151C52.3042 29.0151 53.2515 27.8188 53.2515 25.9692Z" fill="white"/>
    <path d="M65.126 25.9692C65.126 28.7827 63.6201 30.5903 61.3477 30.5903C60.772 30.6204 60.1995 30.4878 59.6957 30.2077C59.1919 29.9275 58.7772 29.5112 58.4991 29.0063H58.4561V33.4907H56.5977V21.4418H58.3965V22.9477H58.4307C58.7216 22.4452 59.1433 22.0311 59.651 21.7492C60.1586 21.4674 60.7332 21.3284 61.3135 21.3471C63.6114 21.3471 65.126 23.1635 65.126 25.9692ZM63.2158 25.9692C63.2158 24.1362 62.2686 22.9311 60.8233 22.9311C59.4033 22.9311 58.4483 24.1616 58.4483 25.9692C58.4483 27.7934 59.4033 29.0151 60.8233 29.0151C62.2686 29.0151 63.2158 27.8188 63.2158 25.9692Z" fill="white"/>
    <path d="M71.7119 27.0357C71.8496 28.2671 73.0459 29.0757 74.6807 29.0757C76.2471 29.0757 77.3741 28.2671 77.3741 27.1567C77.3741 26.1929 76.6944 25.6157 75.085 25.2202L73.4756 24.8325C71.1954 24.2817 70.1367 23.2153 70.1367 21.4849C70.1367 19.3423 72.0039 17.8706 74.6553 17.8706C77.2793 17.8706 79.0782 19.3423 79.1387 21.4849H77.2627C77.1504 20.2456 76.126 19.4976 74.6289 19.4976C73.1318 19.4976 72.1074 20.2544 72.1074 21.356C72.1074 22.2339 72.7617 22.7505 74.3623 23.146L75.7305 23.4819C78.2783 24.0844 79.3369 25.1079 79.3369 26.9243C79.3369 29.2475 77.4863 30.7026 74.543 30.7026C71.7891 30.7026 69.9297 29.2817 69.8096 27.0356L71.7119 27.0357Z" fill="white"/>
    <path d="M83.3486 19.2996V21.4421H85.0703V22.9138H83.3486V27.905C83.3486 28.6804 83.6934 29.0417 84.4502 29.0417C84.6546 29.0382 84.8586 29.0238 85.0615 28.9987V30.4616C84.7212 30.5252 84.3754 30.554 84.0293 30.5476C82.1963 30.5476 81.4814 29.8591 81.4814 28.1032V22.9138H80.165V21.4421H81.4814V19.2996H83.3486Z" fill="white"/>
    <path d="M86.0669 25.9691C86.0669 23.1205 87.7446 21.3304 90.3608 21.3304C92.9858 21.3304 94.6558 23.1204 94.6558 25.9691C94.6558 28.8256 92.9946 30.6078 90.3608 30.6078C87.728 30.6078 86.0669 28.8256 86.0669 25.9691ZM92.7622 25.9691C92.7622 24.015 91.8667 22.8617 90.3608 22.8617C88.855 22.8617 87.9604 24.0238 87.9604 25.9691C87.9604 27.931 88.855 29.0756 90.3608 29.0756C91.8667 29.0756 92.7622 27.931 92.7622 25.9691Z" fill="white"/>
    <path d="M96.1875 21.4419H97.96V22.9829H98.003C98.1229 22.5016 98.4048 22.0763 98.8014 21.7784C99.198 21.4805 99.6851 21.3282 100.181 21.3472C100.395 21.3464 100.608 21.3697 100.817 21.4165V23.1548C100.547 23.0722 100.265 23.0342 99.9824 23.0425C99.7124 23.0315 99.4433 23.0791 99.1935 23.182C98.9436 23.2849 98.719 23.4406 98.535 23.6385C98.351 23.8364 98.2121 24.0718 98.1276 24.3284C98.0432 24.5851 98.0153 24.857 98.0459 25.1255V30.4956H96.1875L96.1875 21.4419Z" fill="white"/>
    <path d="M109.387 27.8367C109.137 29.4802 107.536 30.6082 105.488 30.6082C102.854 30.6082 101.22 28.8435 101.22 26.0124C101.22 23.1726 102.863 21.3308 105.41 21.3308C107.915 21.3308 109.49 23.0515 109.49 25.7966V26.4333H103.096V26.5457C103.066 26.8789 103.108 27.2145 103.218 27.5304C103.328 27.8462 103.504 28.135 103.735 28.3775C103.965 28.6201 104.244 28.8108 104.554 28.9371C104.864 29.0634 105.197 29.1224 105.531 29.1101C105.97 29.1512 106.411 29.0495 106.788 28.8201C107.165 28.5907 107.457 28.2457 107.622 27.8367L109.387 27.8367ZM103.104 25.1345H107.631C107.648 24.8349 107.602 24.5351 107.497 24.2539C107.393 23.9727 107.231 23.7162 107.023 23.5004C106.814 23.2846 106.563 23.1143 106.286 23.0001C106.008 22.8859 105.71 22.8302 105.41 22.8367C105.108 22.8349 104.808 22.893 104.527 23.0078C104.247 23.1225 103.993 23.2916 103.779 23.5052C103.564 23.7188 103.394 23.9728 103.279 24.2524C103.163 24.5321 103.104 24.8319 103.104 25.1345Z" fill="white"/>
    <path d="M37.8271 8.73114C38.2168 8.70318 38.6077 8.76204 38.9718 8.90347C39.3359 9.0449 39.6641 9.26538 39.9327 9.54901C40.2013 9.83263 40.4036 10.1723 40.525 10.5436C40.6464 10.9149 40.6839 11.3085 40.6348 11.696C40.6348 13.6022 39.6045 14.698 37.8271 14.698H35.6719V8.73114H37.8271ZM36.5986 13.8541H37.7236C38.002 13.8708 38.2806 13.8251 38.5392 13.7205C38.7977 13.6159 39.0297 13.455 39.2182 13.2494C39.4067 13.0438 39.5469 12.7988 39.6288 12.5322C39.7107 12.2656 39.7321 11.9841 39.6914 11.7081C39.7291 11.4333 39.7056 11.1535 39.6224 10.8889C39.5393 10.6242 39.3987 10.3812 39.2106 10.1773C39.0226 9.97334 38.7917 9.81353 38.5346 9.70929C38.2776 9.60506 38.0006 9.55897 37.7236 9.57435H36.5986V13.8541Z" fill="white"/>
    <path d="M41.6819 12.4439C41.6536 12.148 41.6875 11.8494 41.7813 11.5674C41.8751 11.2853 42.0269 11.026 42.2268 10.806C42.4268 10.586 42.6705 10.4102 42.9423 10.2899C43.2142 10.1697 43.5082 10.1075 43.8055 10.1075C44.1027 10.1075 44.3967 10.1697 44.6686 10.2899C44.9404 10.4102 45.1841 10.586 45.3841 10.806C45.584 11.026 45.7358 11.2853 45.8296 11.5674C45.9235 11.8494 45.9573 12.148 45.929 12.4439C45.9578 12.7401 45.9244 13.0391 45.8308 13.3217C45.7372 13.6042 45.5855 13.864 45.3855 14.0844C45.1856 14.3048 44.9417 14.481 44.6695 14.6015C44.3974 14.722 44.1031 14.7843 43.8055 14.7843C43.5078 14.7843 43.2135 14.722 42.9414 14.6015C42.6693 14.481 42.4254 14.3048 42.2254 14.0844C42.0254 13.864 41.8737 13.6042 41.7801 13.3217C41.6865 13.0391 41.6531 12.7401 41.6819 12.4439ZM45.0149 12.4439C45.0149 11.4679 44.5764 10.8971 43.8069 10.8971C43.0345 10.8971 42.5999 11.4679 42.5999 12.4439C42.5999 13.4278 43.0345 13.9942 43.8069 13.9942C44.5765 13.9942 45.0149 13.4239 45.0149 12.4439Z" fill="white"/>
    <path d="M51.5742 14.6976H50.6523L49.7217 11.3812H49.6514L48.7246 14.6976H47.8115L46.5703 10.1947H47.4717L48.2783 13.6307H48.3447L49.2705 10.1947H50.1231L51.0488 13.6307H51.1191L51.9219 10.1947H52.8105L51.5742 14.6976Z" fill="white"/>
    <path d="M53.8545 10.1951H54.71V10.9104H54.7764C54.889 10.6535 55.079 10.4381 55.3199 10.2943C55.5608 10.1505 55.8405 10.0855 56.1201 10.1082C56.3392 10.0917 56.5592 10.1248 56.7638 10.2049C56.9684 10.2849 57.1524 10.4101 57.3021 10.5709C57.4517 10.7317 57.5633 10.9242 57.6285 11.134C57.6937 11.3438 57.7109 11.5656 57.6787 11.783V14.698H56.79V12.0062C56.79 11.2825 56.4756 10.9227 55.8184 10.9227C55.6696 10.9157 55.5211 10.941 55.383 10.9969C55.245 11.0527 55.1206 11.1377 55.0185 11.2461C54.9164 11.3545 54.8389 11.4837 54.7914 11.6248C54.7439 11.7659 54.7274 11.9157 54.7432 12.0638V14.698H53.8545L53.8545 10.1951Z" fill="white"/>
    <path d="M59.0947 8.43689H59.9834V14.6976H59.0947V8.43689Z" fill="white"/>
    <path d="M61.219 12.4439C61.1907 12.1479 61.2246 11.8494 61.3185 11.5673C61.4123 11.2852 61.5641 11.0259 61.7641 10.8059C61.964 10.5859 62.2078 10.4101 62.4796 10.2898C62.7515 10.1696 63.0455 10.1074 63.3428 10.1074C63.6401 10.1074 63.9341 10.1696 64.206 10.2898C64.4778 10.4101 64.7215 10.5859 64.9215 10.8059C65.1215 11.0259 65.2733 11.2852 65.3671 11.5673C65.461 11.8494 65.4949 12.1479 65.4666 12.4439C65.4954 12.7401 65.4619 13.0391 65.3683 13.3216C65.2747 13.6042 65.123 13.864 64.9229 14.0844C64.7229 14.3048 64.479 14.4809 64.2069 14.6014C63.9348 14.722 63.6404 14.7842 63.3428 14.7842C63.0452 14.7842 62.7508 14.722 62.4787 14.6014C62.2065 14.4809 61.9626 14.3048 61.7626 14.0844C61.5626 13.864 61.4109 13.6042 61.3173 13.3216C61.2237 13.0391 61.1902 12.7401 61.219 12.4439ZM64.552 12.4439C64.552 11.4678 64.1135 10.897 63.344 10.897C62.5715 10.897 62.137 11.4678 62.137 12.4439C62.137 13.4278 62.5716 13.9942 63.344 13.9942C64.1135 13.9942 64.552 13.4239 64.552 12.4439Z" fill="white"/>
    <path d="M66.4019 13.4238C66.4019 12.6133 67.0054 12.146 68.0767 12.0796L69.2964 12.0093V11.6206C69.2964 11.145 68.9819 10.8765 68.3745 10.8765C67.8784 10.8765 67.5347 11.0586 67.436 11.377H66.5757C66.6665 10.6035 67.394 10.1074 68.4155 10.1074C69.5444 10.1074 70.1812 10.6694 70.1812 11.6206V14.6973H69.3257V14.0645H69.2554C69.1127 14.2914 68.9123 14.4765 68.6746 14.6007C68.437 14.7249 68.1707 14.7838 67.9028 14.7715C67.7138 14.7911 67.5227 14.7709 67.342 14.7122C67.1612 14.6536 66.9948 14.5576 66.8533 14.4307C66.7119 14.3037 66.5987 14.1485 66.5209 13.9751C66.4432 13.8017 66.4026 13.6139 66.4019 13.4238ZM69.2964 13.0391V12.6626L68.1968 12.7329C67.5767 12.7744 67.2954 12.9853 67.2954 13.3823C67.2954 13.7876 67.647 14.0234 68.1304 14.0234C68.272 14.0378 68.4151 14.0235 68.5511 13.9814C68.6871 13.9393 68.8133 13.8703 68.9221 13.7784C69.0309 13.6866 69.1201 13.5738 69.1844 13.4468C69.2487 13.3198 69.2868 13.1811 69.2964 13.0391Z" fill="white"/>
    <path d="M71.3481 12.4442C71.3481 11.0214 72.0796 10.12 73.2173 10.12C73.4987 10.107 73.778 10.1744 74.0225 10.3143C74.267 10.4542 74.4667 10.6608 74.5981 10.91H74.6646V8.43689H75.5532V14.6976H74.7017V13.9862H74.6314C74.4897 14.2337 74.2831 14.4377 74.0339 14.5762C73.7846 14.7147 73.5022 14.7823 73.2173 14.7718C72.0718 14.7719 71.3481 13.8705 71.3481 12.4442ZM72.2661 12.4442C72.2661 13.3993 72.7163 13.974 73.4693 13.974C74.2183 13.974 74.6812 13.391 74.6812 12.4481C74.6812 11.5097 74.2134 10.9183 73.4693 10.9183C72.7212 10.9183 72.2661 11.497 72.2661 12.4442Z" fill="white"/>
    <path d="M79.2305 12.4442C79.2305 11.0214 79.9619 10.12 81.0996 10.12C81.381 10.107 81.6603 10.1744 81.9048 10.3143C82.1494 10.4542 82.349 10.6608 82.4805 10.91H82.5469V8.43689H83.4355V14.6976H82.584V13.9862H82.5137C82.3721 14.2337 82.1654 14.4377 81.9162 14.5762C81.6669 14.7147 81.3845 14.7823 81.0996 14.7718C79.9541 14.7719 79.2305 13.8705 79.2305 12.4442ZM80.1485 12.4442C80.1485 13.3993 80.5987 13.974 81.3516 13.974C82.1006 13.974 82.5635 13.391 82.5635 12.4481C82.5635 11.5097 82.0957 10.9183 81.3516 10.9183C80.6035 10.9183 80.1485 11.497 80.1485 12.4442Z" fill="white"/>
    <path d="M84.7784 8.86311C84.7715 8.74801 84.7994 8.63351 84.8583 8.53443C84.9173 8.43535 85.0047 8.35626 85.1091 8.3074C85.2136 8.25855 85.3303 8.24218 85.4441 8.26042C85.558 8.27866 85.6637 8.33067 85.7477 8.4097C85.8317 8.48874 85.8899 8.59116 85.915 8.70371C85.9401 8.81625 85.9308 8.93374 85.8883 9.04093C85.8459 9.14813 85.7722 9.24011 85.6768 9.30495C85.5815 9.36979 85.4689 9.40452 85.3536 9.40461C85.2799 9.40837 85.2062 9.39719 85.1369 9.37174C85.0676 9.34628 85.0042 9.30709 84.9505 9.25651C84.8968 9.20593 84.8538 9.145 84.8242 9.0774C84.7947 9.00979 84.7791 8.9369 84.7784 8.86311ZM84.9102 10.1947H85.7959V14.6976H84.9102V10.1947Z" fill="white"/>
  </g>
  <defs>
    <clipPath id="clip0_1_1508">
      <rect width="119.664" height="40" fill="white" transform="translate(0.000976562)"/>
    </clipPath>
  </defs>
</svg>