<svg xmlns="http://www.w3.org/2000/svg" width="49" height="48" viewBox="0 0 49 48" fill="none">
  <path d="M40.742 17.434V30.5644C40.742 32.304 39.8136 33.9122 38.3072 34.782L26.9358 41.3462C25.4294 42.218 23.5724 42.218 22.066 41.3462L10.6947 34.782C9.18829 33.9122 8.25977 32.304 8.25977 30.5644V17.434C8.25977 15.6945 9.18829 14.0863 10.6947 13.2166L22.066 6.65232C23.5724 5.78256 25.4294 5.78256 26.9358 6.65232L38.3072 13.2166C39.8136 14.0863 40.742 15.6945 40.742 17.434Z" stroke="#222230" stroke-width="3" stroke-linecap="round" stroke-linejoin="round"/>
  <path d="M24.5 29.8942V24.0546" stroke="#222230" stroke-width="3" stroke-linecap="round" stroke-linejoin="round"/>
  <path d="M29.5572 21.1348L24.4994 24.054L19.4414 21.1348" stroke="#222230" stroke-width="3" stroke-linecap="round" stroke-linejoin="round"/>
  <path d="M24.5 41.8922V36.0528" stroke="#222230" stroke-width="3" stroke-linecap="round" stroke-linejoin="round"/>
  <path d="M34.8906 18.0555L39.9484 15.1367" stroke="#222230" stroke-width="3" stroke-linecap="round" stroke-linejoin="round"/>
  <path d="M9.05078 15.1348L14.1086 18.0535" stroke="#222230" stroke-width="3" stroke-linecap="round" stroke-linejoin="round"/>
</svg>