<svg xmlns="http://www.w3.org/2000/svg" width="48" height="48" viewBox="0 0 48 48" fill="none">
  <path d="M34.9985 38.0002H43.9985M43.9985 38.0002L38.9985 33.0002M43.9985 38.0002L38.9985 43.0002M23.9985 4.00024L18.9985 9.00024L23.9985 14.0002" stroke="#222230" stroke-width="3" stroke-linecap="round" stroke-linejoin="round"/>
  <path d="M20.9985 9C24.9768 9 28.7921 10.5804 31.6051 13.3934C34.4182 16.2064 35.9985 20.0218 35.9985 24C35.9985 27.9782 34.4182 31.7936 31.6051 34.6066C28.7921 37.4196 24.9768 39 20.9985 39H3.99854" stroke="#222230" stroke-width="3" stroke-linecap="round" stroke-linejoin="round"/>
  <path d="M13.512 11.0005C11.2277 12.3158 9.33044 14.2102 8.0116 16.4925C6.69277 18.7748 5.99892 21.3645 6 24.0005C6 27.3765 7.116 30.4925 9 33.0005" stroke="#222230" stroke-width="3" stroke-linecap="round" stroke-linejoin="round"/>
</svg>