<svg xmlns="http://www.w3.org/2000/svg" width="48" height="48" viewBox="0 0 48 48" fill="none">
  <path d="M24 8.24034L18.5122 6L10.1707 11.4571V17.4635L6 19.6075V28.393L10.1707 30.5358V36.5358L18.5122 42L24 39.75" stroke="#222230" stroke-width="3" stroke-linecap="round" stroke-linejoin="round"/>
  <path d="M24 30.8288V39.7596L29.4878 42L37.8292 36.5428V30.5366L42 28.3926V19.607L37.8292 17.4641V11.4642L29.4878 6L24 8.24996V17.1674" stroke="#222230" stroke-width="3" stroke-linecap="round" stroke-linejoin="round"/>
  <path d="M20.8526 17.3164H27.117C29.3066 17.3164 30.6694 18.8621 30.6694 21.0496V26.952C30.6694 29.1394 29.3066 30.685 27.1162 30.685H20.8526C18.6629 30.685 17.3008 29.1394 17.3008 26.952V21.0496C17.3008 18.8621 18.6694 17.3164 20.8526 17.3164Z" stroke="#222230" stroke-width="3" stroke-linecap="round" stroke-linejoin="round"/>
  <path d="M30.6992 21.0586H33.0516" stroke="#222230" stroke-width="3" stroke-linecap="round" stroke-linejoin="round"/>
  <path d="M30.6992 27.1406H33.0516" stroke="#222230" stroke-width="3" stroke-linecap="round" stroke-linejoin="round"/>
  <path d="M14.9492 21.0586H17.3015" stroke="#222230" stroke-width="3" stroke-linecap="round" stroke-linejoin="round"/>
  <path d="M14.9492 27.1406H17.3015" stroke="#222230" stroke-width="3" stroke-linecap="round" stroke-linejoin="round"/>
</svg>