<svg
                      xmlns="http://www.w3.org/2000/svg"
                      width="24"
                      height="25"
                      viewBox="0 0 24 25"
                      fill="none"
                    >
                      <path
                        fill-rule="evenodd"
                        clip-rule="evenodd"
                        d="M21.891 20.4344L17.13 11.1054C16.959 10.7704 16.615 10.5594 16.239 10.5594C15.863 10.5594 15.519 10.7704 15.349 11.1044L12.583 16.5234C11.749 16.0074 10.933 15.3494 10.205 14.6084C11.715 13.1484 12.672 11.5604 13.275 10.1944C13.773 9.06336 14.137 7.77837 14.279 6.78837H16.507C17.059 6.78837 17.507 6.34137 17.507 5.78837C17.507 5.23637 17.059 4.78838 16.507 4.78838H10.404V4.10938C10.404 3.55638 9.956 3.10938 9.404 3.10938C8.852 3.10938 8.404 3.55638 8.404 4.10938V4.78838H3C2.448 4.78838 2 5.23637 2 5.78837C2 6.34137 2.448 6.78837 3 6.78837H12.24C11.992 8.13137 11.217 10.7724 8.903 13.0664C8.305 12.2154 7.861 11.3254 7.659 10.4684C7.531 9.93138 6.995 9.59938 6.455 9.72638C5.918 9.85337 5.585 10.3924 5.712 10.9294C5.976 12.0434 6.573 13.2244 7.378 14.3474C6.275 15.1294 4.936 15.8184 3.29 16.3234C2.762 16.4854 2.465 17.0444 2.627 17.5724C2.759 18.0024 3.155 18.2794 3.583 18.2794C3.68 18.2794 3.779 18.2654 3.876 18.2354C5.807 17.6434 7.375 16.8234 8.659 15.8944C9.553 16.8374 10.579 17.6794 11.661 18.3284L10.587 20.4334C10.336 20.9254 10.531 21.5284 11.023 21.7794C11.515 22.0314 12.117 21.8344 12.368 21.3434L13.46 19.2044C14.268 19.5014 15.081 19.6684 15.866 19.6684C15.987 19.6684 16.108 19.6644 16.228 19.6574C16.779 19.6204 17.195 19.1424 17.158 18.5914C17.121 18.0404 16.656 17.6474 16.093 17.6614C15.568 17.6954 14.987 17.5934 14.385 17.3924L16.239 13.7594L20.11 21.3424C20.287 21.6894 20.637 21.8884 21.001 21.8884C21.154 21.8884 21.309 21.8534 21.455 21.7794C21.947 21.5284 22.142 20.9254 21.891 20.4344Z"
                        fill="#222230"
                      />
                    </svg>